<svg xmlns="http://www.w3.org/2000/svg" width="24" height="24" viewBox="0 0 24 24"><g><path fill="#4285F4" d="M12 11v2.5h6.9c-.3 1.7-2.1 5-6.9 5-4.1 0-7.5-3.4-7.5-7.5s3.4-7.5 7.5-7.5c2.3 0 4.1.9 5.4 2.1l2.2-2.2C18.1 2.7 15.3 1.5 12 1.5 6.8 1.5 2.5 5.8 2.5 11s4.3 9.5 9.5 9.5c5.5 0 9.1-3.8 9.1-9.1 0-.6-.1-1.2-.2-1.7H12z"/><path fill="#34A853" d="M3.6 7.1l2.8 2c.8-2.2 3-3.6 5.6-3.6 1.3 0 2.5.4 3.4 1.1l2.6-2.6C16.1 2.7 14.2 1.5 12 1.5c-3.6 0-6.7 2.1-8.4 5.6z"/><path fill="#FBBC05" d="M12 21c2.7 0 5-1.1 6.6-2.9l-3.2-2.6c-.9.6-2.1.9-3.4.9-2.6 0-4.8-1.4-5.6-3.6l-2.8 2c1.7 3.5 4.8 5.6 8.4 5.6z"/><path fill="#EA4335" d="M21.6 12.2c0-.6-.1-1.2-.2-1.7H12v3.5h5.4c-.2 1.1-.9 2.1-1.8 2.7l3.2 2.6c1.9-1.7 3-4.2 3-7.1z"/></g></svg>
